HIERARCHY
ROOT Hips
{
	OFFSET 81.589203 -19.508213 83.739304
	CHANNELS 6 Xposition Yposition Zposition Xrotation Yrotation Zrotation
	JOINT spine
	{
		OFFSET 0.000000 -0.393702 6.846367
		CHANNELS 3 Xrotation Yrotation Zrotation
		JOINT spine1
		{
			OFFSET 0.000000 -0.000002 9.496208
			CHANNELS 3 Xrotation Yrotation Zrotation
			JOINT spine2
			{
				OFFSET 0.000000 0.000000 9.099091
				CHANNELS 3 Xrotation Yrotation Zrotation
				JOINT Neck
				{
					OFFSET 0.000000 -1.113783 23.361206
					CHANNELS 3 Xrotation Yrotation Zrotation
					JOINT Head
					{
						OFFSET 0.000000 -0.000002 7.058014
						CHANNELS 3 Xrotation Yrotation Zrotation
						End Site
						{
							OFFSET 0.000000 5.634187 17.084396
						}
					}
				}
				JOINT RightShoulder
				{
					OFFSET -3.831360 0.533489 9.826309
					CHANNELS 3 Xrotation Yrotation Zrotation
					JOINT RightArm
					{
						OFFSET 0.000000 -0.000002 12.888107
						CHANNELS 3 Xrotation Yrotation Zrotation
						JOINT RightArmRoll
						{
							OFFSET 0.000000 -0.000002 6.506165
							CHANNELS 3 Xrotation Yrotation Zrotation
							JOINT RightForeArm
							{
								OFFSET 0.000000 -0.000002 18.950104
								CHANNELS 3 Xrotation Yrotation Zrotation
								JOINT RightForeArmRoll
								{
									OFFSET 0.000000 -0.000002 7.300919
									CHANNELS 3 Xrotation Yrotation Zrotation
									JOINT RightHand
									{
										OFFSET 0.000000 -0.000002 14.651398
										CHANNELS 3 Xrotation Yrotation Zrotation
										End Site
										{
											OFFSET 0.000000 0.000000 0.100006
										}
									}
								}
							}
						}
					}
				}
				JOINT LeftShoulder
				{
					OFFSET 3.831360 0.533489 9.826309
					CHANNELS 3 Xrotation Yrotation Zrotation
					JOINT LeftArm
					{
						OFFSET 0.000000 -0.000002 12.888107
						CHANNELS 3 Xrotation Yrotation Zrotation
						JOINT LeftArmRoll
						{
							OFFSET 0.000000 -0.000002 6.506165
							CHANNELS 3 Xrotation Yrotation Zrotation
							JOINT LeftForeArm
							{
								OFFSET 0.000000 -0.000002 18.950104
								CHANNELS 3 Xrotation Yrotation Zrotation
								JOINT LeftForeArmRoll
								{
									OFFSET 0.000000 -0.000002 7.300919
									CHANNELS 3 Xrotation Yrotation Zrotation
									JOINT LeftHand
									{
										OFFSET 0.000000 -0.000002 14.651398
										CHANNELS 3 Xrotation Yrotation Zrotation
										End Site
										{
											OFFSET 0.000000 0.000000 0.100006
										}
									}
								}
							}
						}
					}
				}
			}
		}
	}
	JOINT RightUpLeg
	{
		OFFSET -6.068367 0.933477 -1.112778
		CHANNELS 3 Xrotation Yrotation Zrotation
		JOINT RightUpLegRoll
		{
			OFFSET 0.000000 -0.000004 17.179596
			CHANNELS 3 Xrotation Yrotation Zrotation
			JOINT RightLeg
			{
				OFFSET 0.000000 0.000004 -21.274300
				CHANNELS 3 Xrotation Yrotation Zrotation
				JOINT RightLegRoll
				{
					OFFSET 0.000000 -0.000004 21.343903
					CHANNELS 3 Xrotation Yrotation Zrotation
					JOINT RightFoot
					{
						OFFSET 0.000000 -0.000002 17.765198
						CHANNELS 3 Xrotation Yrotation Zrotation
						JOINT RightToeBase
						{
							OFFSET 0.000000 -0.000002 14.850807
							CHANNELS 3 Xrotation Yrotation Zrotation
							End Site
							{
								OFFSET 0.006294 0.829002 7.192123
							}
						}
					}
				}
			}
		}
	}
	JOINT LeftUpLeg
	{
		OFFSET 6.068367 0.933477 -1.112778
		CHANNELS 3 Xrotation Yrotation Zrotation
		JOINT LeftUpLegRoll
		{
			OFFSET 0.000000 -0.000004 17.179703
			CHANNELS 3 Xrotation Yrotation Zrotation
			JOINT LeftLeg
			{
				OFFSET 0.000000 -0.000002 21.274200
				CHANNELS 3 Xrotation Yrotation Zrotation
				JOINT LeftLegRoll
				{
					OFFSET 0.000000 -0.000004 21.541199
					CHANNELS 3 Xrotation Yrotation Zrotation
					JOINT LeftFoot
					{
						OFFSET 0.000000 -0.000004 17.567902
						CHANNELS 3 Xrotation Yrotation Zrotation
						JOINT LeftToeBase
						{
							OFFSET 0.000000 -0.000002 14.850800
							CHANNELS 3 Xrotation Yrotation Zrotation
							End Site
							{
								OFFSET -0.028214 0.829002 7.192123
							}
						}
					}
				}
			}
		}
	}
}
MOTION
Frames: 9
Frame Time: 0.041667
46.438995 -2.624123 91.253601 -1.958247 -2.448191 -2.169901 -0.924618 -0.155950 0.066968 2.149223 -0.312259 0.121554 3.794307 -0.310782 0.125285 40.404793 11.003665 2.496972 -2.382789 -1.237239 4.368309 18.760892 -56.852627 22.242412 125.600034 -50.635730 89.406281 -0.000001 -0.000001 -0.000006 76.440909 -1.988303 -1.222366 0.000010 0.000010 -3.000002 -4.999720 -8.000009 -0.000028 -3.422314 65.050804 4.614879 108.744418 70.013551 -58.147094 -0.000001 0.000003 -0.000005 113.652121 -10.893703 28.862573 0.000005 -0.000008 3.004946 -4.999635 8.001139 -0.000038 -4.032828 -178.389993 0.021102 -179.999991 0.000005 -1.026996 171.162000 -2.749019 -0.521272 0.000003 0.000000 0.096890 68.748934 6.886198 2.170096 25.456871 -7.349276 -0.000005 -4.357919 173.332156 -0.745421 -0.000005 -0.000005 -1.144150 -12.059393 1.287869 0.554394 -0.000003 0.000002 -0.117958 68.041156 -6.907152 -2.137703 25.456853 7.355620 0.000011 
46.416500 -2.624655 91.263206 -1.961697 -2.471842 -2.161328 -0.926863 -0.154084 0.067225 2.145082 -0.308534 0.123147 3.790165 -0.307037 0.126833 40.456600 10.987430 2.528784 -2.466516 -1.169595 4.396422 18.808242 -56.857736 22.295648 125.516064 -50.605859 89.506528 -0.000003 -0.000000 -0.000007 76.421402 -1.996109 -1.221038 0.000010 0.000013 -3.000001 -4.999719 -8.000008 -0.000028 -3.306664 65.105971 4.488707 108.985149 69.821943 -58.611971 0.000001 0.000001 -0.000007 113.495846 -10.825069 28.627625 0.000005 -0.000010 3.004938 -4.999633 8.001142 -0.000043 -4.040374 -178.384023 0.019743 -179.999991 0.000005 -1.026996 171.146468 -2.740994 -0.521783 0.000003 -0.000000 0.096891 68.743976 6.886167 2.170099 25.456871 -7.349275 -0.000005 -4.448914 173.327989 -0.751831 -0.000006 -0.000003 -1.144160 -12.205869 1.295282 0.561995 -0.000004 0.000002 -0.120621 68.047993 -6.907162 -2.137680 25.456858 7.355620 0.000012 
46.396702 -2.622564 91.260292 -1.964984 -2.495484 -2.152820 -0.929231 -0.152225 0.067432 2.140730 -0.304821 0.124694 3.785814 -0.303307 0.128337 40.509545 10.971251 2.560010 -2.550590 -1.102347 4.424317 18.856568 -56.862479 22.350020 125.432053 -50.578336 89.609896 -0.000002 0.000001 -0.000007 76.397346 -2.005914 -1.217964 0.000011 0.000013 -2.999999 -4.999722 -8.000011 -0.000028 -3.188669 65.161173 4.359876 109.215346 69.635268 -59.064423 0.000001 0.000003 -0.000005 113.343253 -10.756502 28.395268 0.000005 -0.000011 3.004942 -4.999633 8.001144 -0.000039 -4.047929 -178.378054 0.018220 -179.999991 0.000005 -1.026996 171.130963 -2.731996 -0.522137 0.000003 0.000000 0.096890 68.739024 6.886175 2.170109 25.456870 -7.349274 -0.000004 -4.538677 173.323809 -0.758180 -0.000006 -0.000003 -1.144150 -12.350346 1.302807 0.569563 -0.000004 0.000002 -0.123249 68.054728 -6.907164 -2.137756 25.456854 7.355619 0.000012 
46.373299 -2.624725 91.264198 -1.968173 -2.519125 -2.144351 -0.931681 -0.150370 0.067604 2.136220 -0.301120 0.126213 3.781302 -0.299586 0.129810 40.563448 10.955232 2.590821 -2.634924 -1.035395 4.452131 18.905334 -56.866926 22.404988 125.348643 -50.552334 89.716235 -0.000001 0.000002 -0.000005 76.370053 -2.017125 -1.213667 0.000011 0.000015 -3.000004 -4.999722 -8.000008 -0.000029 -3.068852 65.216320 4.228982 109.436125 69.451993 -59.506281 -0.000001 0.000002 -0.000004 113.193733 -10.687328 28.167280 0.000007 -0.000011 3.004940 -4.999637 8.001139 -0.000041 -4.055494 -178.372084 0.016581 -179.999991 0.000005 -1.026996 171.115445 -2.723971 -0.522639 0.000003 -0.000001 0.096890 68.734277 6.886158 2.170100 25.456873 -7.349276 -0.000005 -4.627552 173.319643 -0.764487 -0.000005 -0.000004 -1.144140 -12.493422 1.310411 0.577125 -0.000004 0.000001 -0.125852 68.061558 -6.907171 -2.137631 25.456860 7.355620 0.000012 
46.342300 -2.618946 91.261101 -1.971302 -2.542766 -2.135901 -0.934178 -0.148518 0.067755 2.131628 -0.297423 0.127712 3.776711 -0.295873 0.131265 40.617769 10.939304 2.621445 -2.719391 -0.968638 4.479993 18.954408 -56.871205 22.460360 125.266298 -50.526912 89.825204 -0.000002 0.000000 -0.000006 76.341059 -2.029117 -1.208682 0.000010 0.000009 -2.999998 -4.999719 -8.000008 -0.000028 -2.947786 65.271289 4.096676 109.648927 69.270494 -59.939493 0.000001 0.000003 -0.000004 113.045915 -10.617898 27.938610 0.000001 -0.000009 3.004939 -4.999635 8.001139 -0.000038 -4.063061 -178.366128 0.014877 -179.999991 0.000005 -1.025999 171.099995 -2.714962 -0.521983 0.000003 -0.000000 0.096890 68.729523 6.886142 2.170094 25.456871 -7.349276 -0.000005 -4.715936 173.315504 -0.770768 -0.000005 -0.000003 -1.144110 -12.635801 1.318038 0.584701 -0.000004 0.000001 -0.128441 68.068286 -6.907171 -2.137610 25.456854 7.355619 0.000012 
46.320599 -2.620598 91.265091 -1.974410 -2.566398 -2.127473 -0.936688 -0.146667 0.067902 2.127008 -0.293728 0.129210 3.772089 -0.292161 0.132718 40.672223 10.923517 2.651941 -2.803888 -0.902001 4.508005 19.003673 -56.875433 22.515935 125.183625 -50.502364 89.934084 -0.000001 -0.000002 -0.000008 76.311497 -2.041328 -1.203529 0.000010 0.000013 -2.999997 -4.999721 -8.000008 -0.000029 -2.826027 65.326163 3.963612 109.855321 69.089331 -60.366482 -0.000001 0.000001 -0.000003 112.899291 -10.547576 27.711058 0.000008 -0.000009 3.004941 -4.999634 8.001141 -0.000038 -4.070637 -178.360145 0.013155 -179.999991 0.000005 -1.025999 171.084545 -2.705954 -0.522319 0.000003 -0.000001 0.096891 68.724776 6.886123 2.170086 25.456873 -7.349276 -0.000005 -4.804203 173.311378 -0.777038 -0.000005 -0.000003 -1.144090 -12.777880 1.325647 0.592309 -0.000004 0.000001 -0.131026 68.075006 -6.907169 -2.137688 25.456856 7.355619 0.000013 
46.299297 -2.619394 91.263603 -1.977562 -2.590039 -2.119020 -0.939174 -0.144816 0.068059 2.122437 -0.290032 0.130715 3.767518 -0.288445 0.134180 40.726451 10.907683 2.682662 -2.888314 -0.835388 4.536324 19.052598 -56.879695 22.571169 125.101171 -50.477810 90.042541 -0.000001 0.000000 -0.000006 76.282893 -2.053150 -1.198750 0.000010 0.000012 -3.000000 -4.999720 -8.000008 -0.000026 -2.704133 65.380825 3.830407 110.056259 68.906712 -60.788677 -0.000000 0.000000 -0.000007 112.752749 -10.475911 27.483460 0.000006 -0.000011 3.004937 -4.999636 8.001141 -0.000039 -4.078201 -178.354162 0.011462 -179.999991 0.000005 -1.025998 171.069055 -2.697944 -0.522821 0.000003 0.000000 0.096891 68.720036 6.886142 2.169985 25.456871 -7.349274 -0.000004 -4.892710 173.307253 -0.783307 -0.000005 -0.000004 -1.144070 -12.920461 1.333200 0.599975 -0.000004 0.000002 -0.133619 68.081843 -6.907176 -2.137563 25.456858 7.355619 0.000013 
46.271999 -2.617973 91.262596 -1.980782 -2.613690 -2.110553 -0.941598 -0.142960 0.068242 2.117967 -0.286328 0.132244 3.763047 -0.284724 0.135664 40.780064 10.891950 2.713721 -2.972552 -0.768712 4.565044 19.101225 -56.884083 22.625989 125.019277 -50.452230 90.150267 -0.000000 -0.000001 -0.000006 76.256467 -2.063984 -1.194852 0.000011 0.000013 -3.000000 -4.999720 -8.000008 -0.000031 -2.582673 65.435384 3.697730 110.252606 68.721238 -61.207750 -0.000001 0.000002 -0.000004 112.605456 -10.403022 27.254734 0.000005 -0.000012 3.004936 -4.999634 8.001141 -0.000039 -4.085757 -178.347209 0.009778 -179.999991 0.000005 -1.025998 171.053564 -2.688936 -0.523149 0.000003 -0.000000 0.096890 68.715275 6.886086 2.170071 25.456873 -7.349273 -0.000005 -4.981843 173.303168 -0.789608 -0.000005 -0.000004 -1.144050 -13.063941 1.340653 0.607716 -0.000004 0.000001 -0.136229 68.088571 -6.907173 -2.137639 25.456856 7.355619 0.000013 
46.251801 -2.613369 91.260994 -1.984123 -2.637340 -2.102044 -0.943925 -0.141099 0.068465 2.113676 -0.282613 0.133810 3.758756 -0.280991 0.137185 40.832558 10.876240 2.745342 -3.056481 -0.701882 4.594304 19.149211 -56.888656 22.680026 124.936550 -50.425904 90.254441 -0.000002 0.000001 -0.000005 76.233852 -2.073199 -1.192348 0.000010 0.000013 -3.000004 -4.999719 -8.000007 -0.000030 -2.462217 65.489725 3.566218 110.444808 68.531120 -61.624788 -0.000000 0.000003 -0.000005 112.456462 -10.328525 27.023744 0.000009 -0.000009 3.004938 -4.999637 8.001135 -0.000037 -4.093312 -178.341253 0.008294 -179.999991 0.000005 -1.025998 171.038032 -2.680914 -0.523629 0.000003 -0.000001 0.096890 68.710323 6.886090 2.170079 25.456873 -7.349272 -0.000006 -5.071961 173.299111 -0.795930 -0.000004 -0.000004 -1.144050 -13.209025 1.347962 0.615556 -0.000004 0.000001 -0.138867 68.095401 -6.907175 -2.137612 25.456853 7.355620 0.000014 
